<?xml version="1.0" encoding="UTF-8"?>
<svg xmlns="http://www.w3.org/2000/svg" version="1.1" width="400" height="400" viewBox="0 0 400 400"><rect x="0" y="0" width="400" height="400" fill="#fefefe"/><g transform="scale(13.793)"><g transform="translate(2,2)"><path fill-rule="evenodd" d="M8 0L8 1L9 1L9 5L10 5L10 7L11 7L11 6L12 6L12 7L13 7L13 8L14 8L14 10L15 10L15 11L17 11L17 10L18 10L18 11L19 11L19 12L18 12L18 13L17 13L17 12L16 12L16 13L15 13L15 12L14 12L14 16L13 16L13 13L12 13L12 12L13 12L13 9L11 9L11 8L9 8L9 6L8 6L8 8L9 8L9 10L10 10L10 11L8 11L8 9L7 9L7 8L6 8L6 9L5 9L5 8L3 8L3 10L2 10L2 8L0 8L0 9L1 9L1 11L3 11L3 12L4 12L4 13L2 13L2 14L1 14L1 13L0 13L0 17L1 17L1 15L3 15L3 16L2 16L2 17L3 17L3 16L4 16L4 17L5 17L5 16L4 16L4 14L5 14L5 15L7 15L7 16L6 16L6 17L8 17L8 18L9 18L9 20L8 20L8 22L9 22L9 23L8 23L8 25L9 25L9 23L10 23L10 24L12 24L12 25L13 25L13 24L12 24L12 22L13 22L13 23L14 23L14 24L15 24L15 23L16 23L16 22L17 22L17 23L18 23L18 22L19 22L19 21L21 21L21 16L22 16L22 18L24 18L24 19L23 19L23 22L20 22L20 23L19 23L19 24L21 24L21 25L22 25L22 24L24 24L24 25L25 25L25 21L24 21L24 19L25 19L25 18L24 18L24 16L25 16L25 14L24 14L24 13L25 13L25 10L24 10L24 9L25 9L25 8L24 8L24 9L19 9L19 8L18 8L18 9L17 9L17 1L16 1L16 7L15 7L15 6L14 6L14 5L13 5L13 4L14 4L14 3L15 3L15 0L12 0L12 1L13 1L13 2L12 2L12 3L13 3L13 4L12 4L12 5L11 5L11 2L10 2L10 0ZM12 5L12 6L13 6L13 7L14 7L14 6L13 6L13 5ZM6 9L6 10L5 10L5 11L4 11L4 12L5 12L5 14L7 14L7 15L9 15L9 16L8 16L8 17L10 17L10 18L12 18L12 20L13 20L13 21L14 21L14 20L15 20L15 19L16 19L16 15L17 15L17 13L16 13L16 15L15 15L15 16L14 16L14 17L13 17L13 16L12 16L12 14L11 14L11 12L10 12L10 13L9 13L9 12L8 12L8 11L6 11L6 10L7 10L7 9ZM16 9L16 10L17 10L17 9ZM18 9L18 10L19 10L19 9ZM20 10L20 12L19 12L19 13L18 13L18 14L19 14L19 15L18 15L18 16L19 16L19 15L20 15L20 16L21 16L21 15L20 15L20 13L21 13L21 14L23 14L23 13L24 13L24 12L21 12L21 10ZM22 10L22 11L24 11L24 10ZM5 11L5 12L6 12L6 13L7 13L7 14L8 14L8 13L7 13L7 12L6 12L6 11ZM23 15L23 16L24 16L24 15ZM11 16L11 17L12 17L12 18L13 18L13 17L12 17L12 16ZM17 17L17 20L20 20L20 17ZM14 18L14 19L13 19L13 20L14 20L14 19L15 19L15 18ZM18 18L18 19L19 19L19 18ZM10 19L10 20L9 20L9 21L11 21L11 19ZM17 21L17 22L18 22L18 21ZM10 22L10 23L11 23L11 22ZM14 22L14 23L15 23L15 22ZM21 23L21 24L22 24L22 23ZM16 24L16 25L18 25L18 24ZM0 0L0 7L7 7L7 0ZM1 1L1 6L6 6L6 1ZM2 2L2 5L5 5L5 2ZM18 0L18 7L25 7L25 0ZM19 1L19 6L24 6L24 1ZM20 2L20 5L23 5L23 2ZM0 18L0 25L7 25L7 18ZM1 19L1 24L6 24L6 19ZM2 20L2 23L5 23L5 20Z" fill="#000000"/></g></g></svg>
