<?xml version="1.0" encoding="UTF-8"?>
<svg xmlns="http://www.w3.org/2000/svg" version="1.1" width="400" height="400" viewBox="0 0 400 400"><rect x="0" y="0" width="400" height="400" fill="#fefefe"/><g transform="scale(13.793)"><g transform="translate(2,2)"><path fill-rule="evenodd" d="M8 0L8 1L9 1L9 0ZM10 0L10 1L11 1L11 2L10 2L10 3L11 3L11 2L12 2L12 1L13 1L13 0ZM16 0L16 2L15 2L15 1L14 1L14 2L13 2L13 4L15 4L15 5L16 5L16 7L15 7L15 6L14 6L14 9L15 9L15 8L16 8L16 11L17 11L17 13L18 13L18 14L17 14L17 16L16 16L16 15L15 15L15 14L16 14L16 13L14 13L14 11L13 11L13 14L14 14L14 15L15 15L15 17L16 17L16 19L15 19L15 20L14 20L14 21L12 21L12 20L13 20L13 19L14 19L14 16L13 16L13 15L12 15L12 16L10 16L10 14L9 14L9 16L10 16L10 17L11 17L11 18L9 18L9 17L8 17L8 18L9 18L9 19L10 19L10 20L11 20L11 23L12 23L12 24L11 24L11 25L15 25L15 23L14 23L14 21L15 21L15 20L16 20L16 21L18 21L18 22L17 22L17 24L19 24L19 25L25 25L25 24L23 24L23 23L24 23L24 22L25 22L25 15L24 15L24 14L25 14L25 12L23 12L23 11L21 11L21 12L19 12L19 11L20 11L20 9L23 9L23 10L24 10L24 9L25 9L25 8L24 8L24 9L23 9L23 8L20 8L20 9L19 9L19 11L17 11L17 10L18 10L18 8L17 8L17 4L16 4L16 3L17 3L17 0ZM8 2L8 5L9 5L9 2ZM10 4L10 7L11 7L11 8L10 8L10 9L11 9L11 10L9 10L9 8L8 8L8 10L9 10L9 11L8 11L8 13L7 13L7 12L6 12L6 11L7 11L7 10L6 10L6 11L5 11L5 10L4 10L4 11L5 11L5 12L4 12L4 13L5 13L5 14L3 14L3 9L4 9L4 8L0 8L0 11L1 11L1 12L2 12L2 14L1 14L1 15L0 15L0 16L1 16L1 15L7 15L7 16L5 16L5 17L7 17L7 16L8 16L8 13L11 13L11 11L12 11L12 10L13 10L13 5L12 5L12 7L11 7L11 4ZM8 6L8 7L9 7L9 6ZM6 8L6 9L7 9L7 8ZM11 8L11 9L12 9L12 8ZM5 12L5 13L6 13L6 14L7 14L7 13L6 13L6 12ZM21 12L21 16L24 16L24 15L22 15L22 14L24 14L24 13L22 13L22 12ZM18 14L18 16L19 16L19 15L20 15L20 14ZM2 16L2 17L4 17L4 16ZM12 17L12 18L11 18L11 20L12 20L12 19L13 19L13 17ZM17 17L17 20L20 20L20 17ZM21 17L21 20L22 20L22 21L23 21L23 20L24 20L24 19L22 19L22 17ZM23 17L23 18L24 18L24 17ZM18 18L18 19L19 19L19 18ZM8 21L8 25L9 25L9 24L10 24L10 22L9 22L9 21ZM19 21L19 24L20 24L20 21ZM21 22L21 24L22 24L22 22ZM0 0L0 7L7 7L7 0ZM1 1L1 6L6 6L6 1ZM2 2L2 5L5 5L5 2ZM18 0L18 7L25 7L25 0ZM19 1L19 6L24 6L24 1ZM20 2L20 5L23 5L23 2ZM0 18L0 25L7 25L7 18ZM1 19L1 24L6 24L6 19ZM2 20L2 23L5 23L5 20Z" fill="#000000"/></g></g></svg>
