<?xml version="1.0" encoding="UTF-8"?>
<svg xmlns="http://www.w3.org/2000/svg" version="1.1" width="400" height="400" viewBox="0 0 400 400"><rect x="0" y="0" width="400" height="400" fill="#fefefe"/><g transform="scale(13.793)"><g transform="translate(2,2)"><path fill-rule="evenodd" d="M9 0L9 1L8 1L8 2L9 2L9 3L8 3L8 4L9 4L9 5L8 5L8 7L9 7L9 8L6 8L6 9L5 9L5 8L0 8L0 10L1 10L1 11L0 11L0 17L1 17L1 12L2 12L2 13L3 13L3 11L4 11L4 14L3 14L3 15L4 15L4 14L5 14L5 16L4 16L4 17L8 17L8 19L10 19L10 20L8 20L8 25L15 25L15 24L18 24L18 23L16 23L16 22L14 22L14 21L18 21L18 22L19 22L19 21L20 21L20 22L21 22L21 23L19 23L19 25L25 25L25 21L24 21L24 19L25 19L25 18L22 18L22 17L23 17L23 16L22 16L22 17L21 17L21 15L22 15L22 13L23 13L23 15L24 15L24 16L25 16L25 14L24 14L24 13L25 13L25 10L24 10L24 8L23 8L23 11L24 11L24 12L22 12L22 13L21 13L21 12L20 12L20 11L22 11L22 10L20 10L20 8L19 8L19 10L18 10L18 8L17 8L17 6L16 6L16 5L17 5L17 4L16 4L16 3L15 3L15 2L17 2L17 0L16 0L16 1L15 1L15 2L14 2L14 3L13 3L13 2L12 2L12 3L13 3L13 4L9 4L9 3L10 3L10 2L9 2L9 1L13 1L13 0ZM13 4L13 5L9 5L9 7L10 7L10 9L8 9L8 10L7 10L7 9L6 9L6 10L7 10L7 11L6 11L6 12L7 12L7 13L6 13L6 14L7 14L7 15L6 15L6 16L7 16L7 15L8 15L8 16L9 16L9 17L13 17L13 18L10 18L10 19L12 19L12 20L14 20L14 19L15 19L15 20L16 20L16 18L15 18L15 17L16 17L16 16L17 16L17 15L16 15L16 16L15 16L15 15L13 15L13 16L12 16L12 14L11 14L11 13L13 13L13 12L14 12L14 14L17 14L17 12L15 12L15 11L14 11L14 10L16 10L16 9L17 9L17 8L16 8L16 6L15 6L15 5L16 5L16 4L15 4L15 5L14 5L14 4ZM13 5L13 6L12 6L12 7L13 7L13 6L14 6L14 7L15 7L15 6L14 6L14 5ZM10 6L10 7L11 7L11 6ZM13 8L13 9L11 9L11 10L10 10L10 11L11 11L11 10L12 10L12 12L13 12L13 9L16 9L16 8ZM21 8L21 9L22 9L22 8ZM2 9L2 11L3 11L3 10L4 10L4 9ZM8 11L8 12L9 12L9 13L7 13L7 14L8 14L8 15L9 15L9 13L11 13L11 12L9 12L9 11ZM18 11L18 12L19 12L19 11ZM18 13L18 14L19 14L19 13ZM20 13L20 14L21 14L21 13ZM10 15L10 16L11 16L11 15ZM18 15L18 16L19 16L19 15ZM2 16L2 17L3 17L3 16ZM13 16L13 17L15 17L15 16ZM17 17L17 20L20 20L20 17ZM13 18L13 19L14 19L14 18ZM18 18L18 19L19 19L19 18ZM21 18L21 19L22 19L22 20L21 20L21 21L22 21L22 20L23 20L23 19L22 19L22 18ZM9 21L9 22L10 22L10 21ZM11 22L11 23L10 23L10 24L14 24L14 23L13 23L13 22ZM23 22L23 23L22 23L22 24L24 24L24 22ZM0 0L0 7L7 7L7 0ZM1 1L1 6L6 6L6 1ZM2 2L2 5L5 5L5 2ZM18 0L18 7L25 7L25 0ZM19 1L19 6L24 6L24 1ZM20 2L20 5L23 5L23 2ZM0 18L0 25L7 25L7 18ZM1 19L1 24L6 24L6 19ZM2 20L2 23L5 23L5 20Z" fill="#000000"/></g></g></svg>
