<?xml version="1.0" encoding="UTF-8"?>
<svg xmlns="http://www.w3.org/2000/svg" version="1.1" width="400" height="400" viewBox="0 0 400 400"><rect x="0" y="0" width="400" height="400" fill="#fefefe"/><g transform="scale(13.793)"><g transform="translate(2,2)"><path fill-rule="evenodd" d="M9 0L9 3L8 3L8 5L13 5L13 6L12 6L12 7L13 7L13 6L14 6L14 7L15 7L15 8L13 8L13 9L10 9L10 8L11 8L11 6L10 6L10 8L9 8L9 9L8 9L8 8L5 8L5 9L8 9L8 10L10 10L10 11L7 11L7 10L6 10L6 11L5 11L5 10L4 10L4 9L3 9L3 10L2 10L2 8L0 8L0 10L2 10L2 11L0 11L0 12L3 12L3 13L4 13L4 14L5 14L5 15L4 15L4 16L3 16L3 15L2 15L2 16L3 16L3 17L5 17L5 15L8 15L8 13L7 13L7 12L9 12L9 13L10 13L10 11L11 11L11 10L12 10L12 12L11 12L11 14L10 14L10 15L11 15L11 14L12 14L12 16L13 16L13 17L11 17L11 16L10 16L10 17L11 17L11 18L9 18L9 17L8 17L8 20L9 20L9 19L10 19L10 20L11 20L11 22L10 22L10 21L9 21L9 22L10 22L10 23L8 23L8 25L10 25L10 23L11 23L11 22L13 22L13 23L14 23L14 24L15 24L15 23L16 23L16 25L18 25L18 23L16 23L16 22L17 22L17 21L18 21L18 22L19 22L19 21L21 21L21 16L22 16L22 17L23 17L23 15L24 15L24 16L25 16L25 14L24 14L24 13L25 13L25 10L24 10L24 9L22 9L22 8L20 8L20 9L19 9L19 10L18 10L18 9L17 9L17 10L16 10L16 8L17 8L17 6L16 6L16 7L15 7L15 6L14 6L14 5L15 5L15 4L14 4L14 3L15 3L15 2L14 2L14 3L13 3L13 1L15 1L15 0L12 0L12 3L13 3L13 4L11 4L11 3L10 3L10 2L11 2L11 1L10 1L10 0ZM16 1L16 2L17 2L17 1ZM16 3L16 5L17 5L17 3ZM13 4L13 5L14 5L14 4ZM8 6L8 7L9 7L9 6ZM13 9L13 12L12 12L12 13L14 13L14 14L15 14L15 13L16 13L16 14L17 14L17 13L18 13L18 14L19 14L19 13L20 13L20 14L22 14L22 15L23 15L23 13L24 13L24 11L23 11L23 10L22 10L22 12L21 12L21 11L20 11L20 12L19 12L19 11L18 11L18 12L17 12L17 13L16 13L16 11L14 11L14 9ZM3 10L3 11L4 11L4 13L6 13L6 14L7 14L7 13L6 13L6 12L7 12L7 11L6 11L6 12L5 12L5 11L4 11L4 10ZM14 12L14 13L15 13L15 12ZM18 12L18 13L19 13L19 12ZM0 13L0 17L1 17L1 13ZM13 15L13 16L14 16L14 15ZM15 15L15 17L13 17L13 18L12 18L12 20L14 20L14 18L15 18L15 19L16 19L16 15ZM18 15L18 16L19 16L19 15ZM20 15L20 16L21 16L21 15ZM6 16L6 17L7 17L7 16ZM17 17L17 20L20 20L20 17ZM18 18L18 19L19 19L19 18ZM24 18L24 19L23 19L23 20L22 20L22 21L23 21L23 22L21 22L21 23L19 23L19 24L21 24L21 25L22 25L22 24L21 24L21 23L23 23L23 22L24 22L24 25L25 25L25 21L24 21L24 19L25 19L25 18ZM12 24L12 25L13 25L13 24ZM0 0L0 7L7 7L7 0ZM1 1L1 6L6 6L6 1ZM2 2L2 5L5 5L5 2ZM18 0L18 7L25 7L25 0ZM19 1L19 6L24 6L24 1ZM20 2L20 5L23 5L23 2ZM0 18L0 25L7 25L7 18ZM1 19L1 24L6 24L6 19ZM2 20L2 23L5 23L5 20Z" fill="#000000"/></g></g></svg>
